<svg xmlns="http://www.w3.org/2000/svg" viewBox="0 0 280.15 119.14"><defs><style>.cls-1{fill:#f8f9fa;}.cls-2{fill:#ececec;}.cls-3{fill:#fec77a;}.cls-4,.cls-5{fill:#0288d1;}.cls-5{font-size:22.16px;stroke:#0288d1;stroke-miterlimit:10;font-family:ArialMT, Arial;letter-spacing:0em;}</style></defs><title>almost-logo-alt</title><g id="Layer_2" data-name="Layer 2"><g id="Layer_1-2" data-name="Layer 1"><path class="cls-1" d="M213,110.77c26.2-1.89,54.21-5.31,64.06-34.17,8.88-26-4.64-58.6-34.08-59.55-14.41-.47-28.34,11.69-42.6,14-11.85,1.94-29.72,2-41.48-1.13C130.36,22.43,111.11,1.35,79.11.32,19.37-1.6-35.28,93.22,39.62,112c26.63,6.67,61.49-2,89-1.71C156.65,110.58,185,108.7,213,110.77Z"/><path class="cls-2" d="M219.51,110.26a77.57,77.57,0,0,1-11.2.2c-26.44-1.56-53.22.11-79.66-.17C101.11,110,62.71,121.13,36.82,112-34.89,86.71,8.4-6.14,79.11.32,111,3.24,130.36,22.43,158.87,29.93,170.63,33,188.5,33,200.35,31.06c14.26-2.32,28.19-14.48,42.6-14,29.44.95,43,33.54,34.08,59.55C268,103.07,243.68,108.14,219.51,110.26Zm-5.8-5.21c24-1.5,49.8-4.89,58-31.86,6.76-22.3-5.38-49.61-30.42-49.31-13.14.15-26.57,11.67-40,13.7a126.22,126.22,0,0,1-35.58,0c-25.86-3.91-44.63-23-71-28.15C66.58,4,38,8.39,20.6,33.68,5.65,55.38,4.81,87.22,29.21,101.6,53.12,115.69,89.93,104,116,103.89,148.5,103.73,181.27,103.53,213.71,105.05Z"/><path class="cls-3" d="M236.68,23.24c-12.23,2-23.23,12.41-36.13,14.34-11.21,1.68-24.89,1.73-35.91-.93C137.49,30.1,119.49,15.11,93,9.44c-29.26-6.25-51.08-3-69.86,16.37a41.28,41.28,0,0,0-4.42,4.92c-.79,1-1.57,1.94-2.37,2.95C1.88,52.09,2.57,91.92,31.5,104c24.39,10.21,57.54,0,83-.15,32.79-.16,65.87-.36,98.61,1.16,24.22-1.5,50.26-4.89,58.52-31.86C279.48,47.66,267.05,18.16,236.68,23.24Z"/><path class="cls-4" d="M265.79,57.42a16.46,16.46,0,0,0-3.69-.49c-3.67-.07-7.33,0-11,0-1.18,0-1.56-.35-.93-1.45s1.19-2.2,1.78-3.3c1.95-3.67,4-7.32,5.84-11,.69-1.38,1-2.91-.43-4.13a4.1,4.1,0,0,0-4.43-.69,7,7,0,0,0-3.71,3.85c-2.48,4.9-5,9.79-7.37,14.74A3.19,3.19,0,0,1,238.59,57a13.79,13.79,0,0,0-4.59.82A3,3,0,0,0,232,61c.14,1.58,1.44,2.11,2.81,2.41a4.69,4.69,0,0,0,1.23.14c1.41-.08,1.51.45,1,1.62-2.09,4.43-4.11,8.9-6.16,13.35-.08-6.38-3.66-10.67-8.5-14.2-2.09-1.52-2.11-1.48-.4-3.49s1.22-3.73-1.16-4.72a5.75,5.75,0,0,0-4.37-.13,12.67,12.67,0,0,0-5.93,4.8,2.51,2.51,0,0,0-.23,2.24c.88,1.21.46,1.91-.46,2.7-1.32,1.14-2.54,2.42-3.94,3.45A13.07,13.07,0,0,1,202,71.29c-2.33.7-3.06-.16-2.43-2.47.13-.48.3-.95.39-1.44,1.19-6.42-1.64-10.46-8.08-11.63a17.18,17.18,0,0,0-10,1.33C175.12,60,171.19,65.47,169,72.16a9.18,9.18,0,0,1-4.34,5.45,25.66,25.66,0,0,1-5.68,2.45c-2.08.57-3-.68-2.18-2.72a8.38,8.38,0,0,1,1.09-2c1.18-1.6,2.42-3.18,3.66-4.74a16.48,16.48,0,0,0,3.79-8.29c.36-2.77-1-5.39-3.6-6.14a15.44,15.44,0,0,0-5.62-.51,13.77,13.77,0,0,0-7.73,3.78c-.66.58-1.12.83-1.73-.17-2.18-3.51-4.3-4.37-8.36-3.59-3.39.64-6.11,2.52-8.68,4.69a12.77,12.77,0,0,1-1.39.91c-.07-.48-.12-1-.2-1.44-.36-2.36-2.27-3.58-4.33-2.42a9.21,9.21,0,0,0-3.17,3.33c-1.21,2.07-2,4.4-3.07,6.55a8.07,8.07,0,0,1-2,2.74c-3.42,2.64-6.91,5.22-10.48,7.65A23.13,23.13,0,0,1,100,80.09c-1.58.58-2.28,0-2-1.66a15.53,15.53,0,0,1,1.35-4.24Q108,56.07,116.85,38c.47-1,1-1.92,1.42-2.91.56-1.37.78-2.8-.37-4a4.06,4.06,0,0,0-4.38-1,6.23,6.23,0,0,0-3.77,3.74c-3.53,7.54-7.12,15-10.63,22.6-3,6.42-5.87,12.87-8.75,19.33-.1.22-.18.43-.27.65L89.77,76c0-.07-.09-.13-.13-.21-.57-1-1.23-1-2.24-.44-9.23,5.53-35.26,10.5-45.66,8.9A19.4,19.4,0,0,1,32,80.11c-5.13-4.29-5.72-10.06-4.59-16C30.8,46.29,44.9,30.25,64.46,28.33c5.88-.58,11.67-.13,17.11,2.35,5.19,2.37,8,6.52,7.84,12.27a39.33,39.33,0,0,1-8.58,23.24,11.58,11.58,0,0,1-6.46,4.07c-2,.5-2.43,0-1.84-2,1.27-4.23,2.61-8.43,3.91-12.65S79.08,47.22,80.31,43c.8-2.76-.31-5.49-2.57-6-4.65-1-9.38-1.69-14.12-.81C53.06,38.17,45,43.93,39,52.75A22.71,22.71,0,0,0,34.9,66.39a9.11,9.11,0,0,0,6.64,9,18.84,18.84,0,0,0,13.18-.84A27.68,27.68,0,0,0,67,64.65a2.73,2.73,0,0,1,.69-.48,3.94,3.94,0,0,1-.1.7c-.67,2.23-1.42,4.44-2,6.7-.88,3.29.13,4.59,3.49,4.54a20.13,20.13,0,0,0,11-3.5c11.57-7.79,17-18.84,16.5-32.7C96.43,34,93.3,29.56,88.39,26.39c-5.6-3.6-11.88-4.58-18.39-4.55a44,44,0,0,0-22.45,5.89c-15.39,8.6-25,21.48-27.88,39-1.16,7.09.54,13.62,6.31,18.53a24,24,0,0,0,10,4.87A50.44,50.44,0,0,0,54.36,91c6.57-.81,28.89-6.6,34.54-10.26l.33-.22a18.33,18.33,0,0,0,0,2.67,5,5,0,0,0,5,4.93A13.51,13.51,0,0,0,102,86.63c3.19-1.76,6.25-3.76,9.36-5.66-.21,1-.48,1.92-.63,2.89-.28,1.92.4,3.35,1.81,4A3.63,3.63,0,0,0,117,86.67a15.06,15.06,0,0,0,2-3.42,58.45,58.45,0,0,1,8.09-13.44,17.19,17.19,0,0,1,7.09-5.74c1.22-.48,2.66-1.16,3.67.14s-.06,2.39-.71,3.4c-1.88,3-4,5.76-5.75,8.77a44.94,44.94,0,0,0-3.32,7.22,3,3,0,0,0,1.41,4.06,3.74,3.74,0,0,0,4.74-.85,15.14,15.14,0,0,0,2-3.42,57.66,57.66,0,0,1,7.92-13.24c2-2.48,4.14-4.83,7.19-6,1.2-.47,2.71-1.27,3.68,0s.07,2.57-.7,3.67c-1.24,1.78-2.6,3.47-3.82,5.25-1.59,2.34-3.08,4.73-3.49,7.65-.54,3.95,1.65,6.89,5.62,7.34A12.64,12.64,0,0,0,160,86.93a68.16,68.16,0,0,0,6.66-3.9c1.09-.73,1.53-.71,2.25.47a9.38,9.38,0,0,0,8.81,4.62A21,21,0,0,0,194,80.32c1.58-1.91,2.83-2.82,5.23-1.68,1.05.5,2.1.62,2.54,2a9.91,9.91,0,0,0,7.9,6.86,24.23,24.23,0,0,0,7.91.44c6-.79,11.36-2.85,13.27-9.51-.06,1.49-.23,3-.16,4.48.16,3.26,2,5,5.22,5.18a17.46,17.46,0,0,0,9.33-2.29C250.72,83,255.32,79,259.77,74.87a6.75,6.75,0,0,0,1.55-2.77,2.4,2.4,0,0,0-1-2.87c-1.05-.7-1.89-.06-2.69.57-.46.36-.88.77-1.36,1.09-4.22,2.81-8.41,5.67-12.72,8.33-1,.64-2.94,1.21-3.63.71-1.25-.92-.42-2.62.18-3.88,1.76-3.77,3.62-7.49,5.41-11.25a2.35,2.35,0,0,1,2.37-1.43q7.49-.1,15-.3a12.09,12.09,0,0,0,2.95-.35,2.53,2.53,0,0,0,2.06-2.51A2.7,2.7,0,0,0,265.79,57.42ZM61.22,65a17.06,17.06,0,0,1-12.15,5c-5.94,0-8.24-2.91-6.58-8.69,3-10.55,10.08-17.07,20.7-19.43,2.82-.63,5.94,0,8.92.17,1.29.06,1.47.83,1.1,1.91C70.53,51.7,67.34,59.18,61.22,65Zm121,15c-2.55.65-4.16-.29-4.87-2.85-1.47-5.3,2.9-12.41,8.31-13.51,3.47-.71,5.17,1,5.11,5A11.92,11.92,0,0,1,182.25,80Zm37,.48c-4.28,1.6-8.18.64-11.7-2-1.63-1.23-1.51-1.75,0-3.29,2.36-2.44,4.63-5,7-7.4a1.53,1.53,0,0,1,1.39-.32c3.11,2.34,5.84,5,5.94,8.35C221.82,78.83,221.21,79.78,219.24,80.51Z"/><text class="cls-5" transform="translate(219.81 111.45) scale(1.22 1)">CMS</text></g></g></svg>